<?xml version="1.0" standalone="no"?><!DOCTYPE svg PUBLIC "-//W3C//DTD SVG 1.1//EN" "http://www.w3.org/Graphics/SVG/1.1/DTD/svg11.dtd"><svg t="1737702251697" class="icon" viewBox="0 0 1024 1024" version="1.1" xmlns="http://www.w3.org/2000/svg" p-id="5080" xmlns:xlink="http://www.w3.org/1999/xlink" width="1024" height="1024"><path d="M160 320h704a64 64 0 0 1 64 64v256a64 64 0 0 1-64 64H160a64 64 0 0 1-64-64v-256a64 64 0 0 1 64-64z m32 64a32 32 0 0 0-32 32v192a32 32 0 0 0 32 32h640a32 32 0 0 0 32-32v-192a32 32 0 0 0-32-32H192z m280.32 256l-70.88-166.304L326.944 640H256l117.152-256 57.184 0.192L544 640h-71.68zM672 384h64v256h-64v-256zM96 128v128a32 32 0 1 1-64 0V96a31.904 31.904 0 0 1 32-32h160a32 32 0 1 1 0 64H96z m896-32v160a32 32 0 0 1-64 0V128h-128a32 32 0 0 1 0-64h160a32 32 0 0 1 32 32z m-9.376 854.624A31.904 31.904 0 0 1 960 960h-160a32 32 0 0 1 0-64h128v-128a32 32 0 0 1 64 0v160a31.904 31.904 0 0 1-9.376 22.624zM96 896h128a32 32 0 0 1 0 64H64a31.904 31.904 0 0 1-32-32v-160a32 32 0 0 1 64 0v128z" fill="#e6e6e6" p-id="5081"></path></svg>