<?xml version="1.0" standalone="no"?><!DOCTYPE svg PUBLIC "-//W3C//DTD SVG 1.1//EN" "http://www.w3.org/Graphics/SVG/1.1/DTD/svg11.dtd"><svg t="1640328507164" class="icon" viewBox="0 0 1024 1024" version="1.1" xmlns="http://www.w3.org/2000/svg" p-id="13249" xmlns:xlink="http://www.w3.org/1999/xlink" width="64" height="64"><defs><style type="text/css"></style></defs><path d="M164.096 64h439.808c57.088 0 77.76 5.952 98.56 17.088 20.928 11.136 37.312 27.52 48.448 48.384 11.136 20.864 17.088 41.6 17.088 98.56v567.872c0 57.088-5.952 77.76-17.088 98.56-11.136 20.928-27.52 37.312-48.384 48.448-20.864 11.136-41.6 17.088-98.56 17.088H164.032c-57.088 0-77.76-5.952-98.56-17.088a116.288 116.288 0 0 1-48.448-48.384C5.952 873.6 0 852.928 0 795.968V228.032c0-57.088 5.952-77.76 17.088-98.56 11.136-20.928 27.52-37.312 48.384-48.448 20.864-11.136 41.6-17.088 98.56-17.088zM576 320a64 64 0 1 0 0-128 64 64 0 0 0 0 128z m256 0l142.272-94.848a32 32 0 0 1 49.728 26.624v520.448a32 32 0 0 1-49.728 26.624L832 704V320z" p-id="13250"></path></svg>