<?xml version="1.0" standalone="no"?><!DOCTYPE svg PUBLIC "-//W3C//DTD SVG 1.1//EN" "http://www.w3.org/Graphics/SVG/1.1/DTD/svg11.dtd"><svg t="1706761779235" class="icon" viewBox="0 0 1024 1024" version="1.1" xmlns="http://www.w3.org/2000/svg" p-id="4297" xmlns:xlink="http://www.w3.org/1999/xlink" width="200" height="200"><path d="M797.866667 512c-59.733333-157.866667-238.933333-238.933333-396.8-174.933333-81.066667 29.866667-145.066667 93.866667-174.933334 174.933333 59.733333 157.866667 238.933333 238.933333 396.8 174.933333 81.066667-29.866667 145.066667-93.866667 174.933334-174.933333zM512 640c-72.533333 0-128-55.466667-128-128s55.466667-128 128-128 128 55.466667 128 128-55.466667 128-128 128z" p-id="4298"></path><path d="M597.333333 512a85.333333 85.333333 0 1 1-170.624 0.042667A85.333333 85.333333 0 0 1 597.333333 512zM640 128v85.333333h170.666667v170.666667h85.333333V128zM213.333333 213.333333h170.666667V128H128v256h85.333333zM213.333333 640H128v256h256v-85.333333H213.333333zM810.666667 810.666667h-170.666667v85.333333h256v-256h-85.333333z" p-id="4299"></path></svg>