<?xml version="1.0" standalone="no"?><!DOCTYPE svg PUBLIC "-//W3C//DTD SVG 1.1//EN" "http://www.w3.org/Graphics/SVG/1.1/DTD/svg11.dtd"><svg t="1737702276157" class="icon" viewBox="0 0 1024 1024" version="1.1" xmlns="http://www.w3.org/2000/svg" p-id="5402" xmlns:xlink="http://www.w3.org/1999/xlink" width="1024" height="1024"><path d="M920.337035 447.804932c-6.067182-6.067182-10.918677-11.643178-16.985859-17.71036l48.536436-30.334889-42.469254-109.207238-121.340579 12.134365c-6.067182-6.067182-6.067182-12.134365-12.134365-18.201547-12.134365-12.134365-18.201547-24.267706-24.267706-30.334889-24.26873-36.402071-30.334889-42.469254-54.603619-42.469254H339.116511c-18.201547 0-24.267706 6.067182-54.603619 42.469254-6.067182 6.067182-12.134365 18.201547-24.267706 30.334889 0 0-6.067182 6.067182-12.134365 18.201547l-115.27442-12.134365-48.536436 109.207238 51.090608 24.378223c-6.067182 6.067182-30.334889 34.660404-30.334889 34.660405l-15.542998 22.280446-12.282744 17.018605c-6.067182 12.134365-5.064342 10.868535-5.064342 29.070082v224.480635c0 36.402071 18.201547 60.670801 54.603618 60.670801h115.273397c36.402071 0 54.603619-24.267706 54.603619-54.603619v-18.201547h424.693562v18.201547c0 30.334889 18.201547 54.603619 54.603618 54.603619h115.273397c36.402071 0 60.670801-24.267706 60.670801-60.670801V539.300786c0-42.469254 0.685615-46.662763-11.44875-64.863287-4.731768-6.744611-11.94403-16.196891-20.101827-26.632567z m-35.186383-78.381161l-30.334889 18.201547-12.134365-12.134365c-6.067182-8.899694-12.134365-12.134365-12.134365-18.201547l42.469254-6.067183 12.134365 18.201548z m-533.899776-97.072873h339.755054l78.871325 103.140055H272.378527l78.872349-103.140055zM175.305655 357.290429h36.402071c-6.067182 6.067182-6.067182 12.134365-12.134365 18.201547l-18.201547 6.067183-18.201547-12.134365 12.135388-12.134365z m667.375743 394.35765h-54.603619V678.843936H242.043638v72.804143H132.837424V527.167444c0-12.134365-0.041956-20.662599 1.216711-23.556508 1.258667-2.89391 9.955746-16.924461 21.193695-29.173437l35.722596-38.276768h639.576607l21.917172 20.938891c6.067182 6.067182 21.847587 21.366633 25.712615 28.732392 7.621585 9.996678 6.973832 10.999518 13.041014 23.133883v242.682182h-48.536436zM242.043638 533.234627h133.474944v60.670801H242.043638v-60.670801z m412.559197 0h133.474944v60.670801H654.602835v-60.670801z" p-id="5403" fill="#e6e6e6"></path></svg>