<?xml version="1.0" standalone="no"?><!DOCTYPE svg PUBLIC "-//W3C//DTD SVG 1.1//EN" "http://www.w3.org/Graphics/SVG/1.1/DTD/svg11.dtd"><svg t="1709799279810" class="icon" viewBox="0 0 1024 1024" version="1.1" xmlns="http://www.w3.org/2000/svg" p-id="5742" xmlns:xlink="http://www.w3.org/1999/xlink" width="1024" height="1024"><path d="M512 984.615385c261.001846 0 472.615385-211.613538 472.615385-472.615385S773.001846 39.384615 512 39.384615 39.384615 250.998154 39.384615 512s211.613538 472.615385 472.615385 472.615385z m0 39.384615C229.218462 1024 0 794.781538 0 512S229.218462 0 512 0s512 229.218462 512 512-229.218462 512-512 512z m8.664615-708.765538h35.288616V708.923077h-45.213539V370.372923c-24.812308 25.363692-55.689846 43.008-92.632615 54.035692V379.195077a234.338462 234.338462 0 0 0 55.138461-23.709539 228.312615 228.312615 0 0 0 47.419077-40.251076z" fill="#979797" p-id="5743"></path></svg>