<?xml version="1.0" standalone="no"?><!DOCTYPE svg PUBLIC "-//W3C//DTD SVG 1.1//EN" "http://www.w3.org/Graphics/SVG/1.1/DTD/svg11.dtd"><svg t="1709870725839" class="icon" viewBox="0 0 1024 1024" version="1.1" xmlns="http://www.w3.org/2000/svg" p-id="18717" xmlns:xlink="http://www.w3.org/1999/xlink" width="1024" height="1024"><path d="M947.2 138.24v747.52a10.24 10.24 0 0 1-10.24 10.24h-61.44a10.24 10.24 0 0 1-10.24-10.24V138.24c0-5.632 4.608-10.24 10.24-10.24h61.44c5.632 0 10.24 4.608 10.24 10.24z m-788.48 0v747.52a10.24 10.24 0 0 1-10.24 10.24H87.04a10.24 10.24 0 0 1-10.24-10.24V138.24c0-5.632 4.608-10.24 10.24-10.24h61.44c5.632 0 10.24 4.608 10.24 10.24z m512 239.8208a10.24 10.24 0 0 1 5.888 1.8432l164.7104 115.3024a20.48 20.48 0 0 1 0 33.5872l-164.7104 115.3024a10.24 10.24 0 0 1-16.128-8.3968V552.96H363.4688l0.0512 82.7392a10.24 10.24 0 0 1-0.8192 4.0448l-1.024 1.8432a10.24 10.24 0 0 1-14.2848 2.5088l-164.7104-115.3024a20.48 20.48 0 0 1 0-33.5872L347.392 379.904a10.24 10.24 0 0 1 16.128 8.3968L363.4688 471.04H660.48V388.3008c0-5.632 4.608-10.24 10.24-10.24z" fill="#909399" p-id="18718"></path></svg>