<?xml version="1.0" standalone="no"?><!DOCTYPE svg PUBLIC "-//W3C//DTD SVG 1.1//EN" "http://www.w3.org/Graphics/SVG/1.1/DTD/svg11.dtd"><svg t="1709870314902" class="icon" viewBox="0 0 1024 1024" version="1.1" xmlns="http://www.w3.org/2000/svg" p-id="11673" xmlns:xlink="http://www.w3.org/1999/xlink" width="1024" height="1024"><path d="M962.56 1022.976H61.44c-33.792 0-61.44-25.6-61.44-57.344V58.368C0 26.624 27.648 1.024 61.44 1.024h901.12c33.792 0 61.44 25.6 61.44 57.344v907.264c0 31.744-27.648 57.344-61.44 57.344zM378.88 69.632H98.304c-13.312 0-24.576 10.24-24.576 22.528v838.656c0 12.288 11.264 22.528 24.576 22.528H378.88V69.632z m187.392 0H452.608v884.736h113.664V69.632zM950.272 92.16c0-12.288-11.264-22.528-24.576-22.528H640v884.736h284.672c13.312 0 24.576-10.24 24.576-22.528V92.16zM824.32 640c-7.168 9.216-18.432 15.36-30.72 15.36-8.192 0-17.408-3.072-23.552-8.192l-1.024-1.024-1.024-1.024-71.68-65.536c-9.216-8.192-13.312-21.504-10.24-32.768 3.072-12.288 13.312-21.504 26.624-24.576 13.312-3.072 26.624 0 35.84 9.216l7.168 6.144V405.504c0-18.432 16.384-33.792 36.864-33.792s36.864 15.36 36.864 33.792v131.072l6.144-6.144c14.336-13.312 37.888-13.312 52.224 0 14.336 13.312 14.336 34.816 0 48.128l-63.488 61.44zM195.584 385.024c6.144-8.192 15.36-13.312 25.6-14.336 10.24-1.024 20.48 1.024 28.672 7.168 0 0 1.024 0 1.024 1.024l1.024 1.024 1.024 1.024 69.632 64.512c14.336 13.312 14.336 34.816 0 48.128-14.336 13.312-37.888 13.312-52.224 0l-7.168-6.144v132.096c0 18.432-16.384 33.792-36.864 33.792s-36.864-15.36-36.864-33.792V488.448l-6.144 6.144c-14.336 13.312-37.888 13.312-52.224 0-14.336-13.312-14.336-34.816 0-48.128l64.512-61.44z m0 0" fill="#67C23A" p-id="11674"></path></svg>