<?xml version="1.0" standalone="no"?><!DOCTYPE svg PUBLIC "-//W3C//DTD SVG 1.1//EN" "http://www.w3.org/Graphics/SVG/1.1/DTD/svg11.dtd"><svg t="1775106969264" class="icon" viewBox="0 0 1024 1024" version="1.1" xmlns="http://www.w3.org/2000/svg" p-id="1690" xmlns:xlink="http://www.w3.org/1999/xlink" width="200" height="200"><path d="M884.363636 628.363636v162.909091a93.090909 93.090909 0 0 1-93.090909 93.090909h-162.909091v-46.545454h162.909091a46.545455 46.545455 0 0 0 46.545455-46.545455v-162.909091h46.545454zM186.181818 628.363636v162.909091a46.545455 46.545455 0 0 0 46.545455 46.545455h162.909091v46.545454h-162.909091a93.090909 93.090909 0 0 1-93.090909-93.090909v-162.909091h46.545454z m581.818182-232.727272a46.545455 46.545455 0 0 1 46.545455 46.545454v186.181818a46.545455 46.545455 0 0 1-46.545455 46.545455H256a46.545455 46.545455 0 0 1-46.545455-46.545455v-186.181818a46.545455 46.545455 0 0 1 46.545455-46.545454h512z m-23.272727 46.545454H279.272727a23.272727 23.272727 0 0 0-23.272727 23.272727v139.636364a23.272727 23.272727 0 0 0 23.272727 23.272727h465.454546a23.272727 23.272727 0 0 0 23.272727-23.272727v-139.636364a23.272727 23.272727 0 0 0-23.272727-23.272727z m-395.636364 23.272727a23.272727 23.272727 0 0 1 23.272727 23.272728v93.090909a23.272727 23.272727 0 0 1-46.545454 0v-93.090909a23.272727 23.272727 0 0 1 23.272727-23.272728z m69.818182 0a23.272727 23.272727 0 0 1 23.272727 23.272728v93.090909a23.272727 23.272727 0 0 1-46.545454 0v-93.090909a23.272727 23.272727 0 0 1 23.272727-23.272728z m116.363636 0a23.272727 23.272727 0 0 1 23.272728 23.272728v93.090909a23.272727 23.272727 0 0 1-46.545455 0v-93.090909a23.272727 23.272727 0 0 1 23.272727-23.272728z m162.909091 0a23.272727 23.272727 0 0 1 23.272727 23.272728v93.090909a23.272727 23.272727 0 0 1-46.545454 0v-93.090909a23.272727 23.272727 0 0 1 23.272727-23.272728zM395.636364 139.636364v46.545454h-162.909091a46.545455 46.545455 0 0 0-46.545455 46.545455v162.909091H139.636364v-162.909091a93.090909 93.090909 0 0 1 93.090909-93.090909h162.909091z m395.636363 0a93.090909 93.090909 0 0 1 93.090909 93.090909v162.909091l-46.545454-0.023273V232.727273a46.545455 46.545455 0 0 0-46.545455-46.545455h-162.909091V139.636364h162.909091z" fill="#ffffff" p-id="1691"></path></svg>