<?xml version="1.0" standalone="no"?><!DOCTYPE svg PUBLIC "-//W3C//DTD SVG 1.1//EN" "http://www.w3.org/Graphics/SVG/1.1/DTD/svg11.dtd"><svg t="1710383047104" class="icon" viewBox="0 0 1024 1024" version="1.1" xmlns="http://www.w3.org/2000/svg" p-id="6195" xmlns:xlink="http://www.w3.org/1999/xlink" width="1024" height="1024"><path d="M512 112a398.54 398.54 0 1 1-155.68 31.41A397.51 397.51 0 0 1 512 112m0-47C265.13 65 65 265.13 65 512s200.13 447 447 447 447-200.13 447-447S758.87 65 512 65z" fill="#E6A23C" p-id="6196"></path><path d="M787 518.63a76.09 76.09 0 0 0-75.88-75.87H311.61A74.83 74.83 0 0 0 237 517.37v125.3a11.4 11.4 0 0 0 1.37 5.41A29.62 29.62 0 0 0 237 657v40a30.09 30.09 0 0 0 30 30h40a30.09 30.09 0 0 0 30-30v-40c0-1-0.05-1.93-0.14-2.87h350.28c-0.09 0.94-0.14 1.9-0.14 2.87v40a30.09 30.09 0 0 0 30 30h40a30.09 30.09 0 0 0 30-30v-40a29.62 29.62 0 0 0-1.37-8.93 11.4 11.4 0 0 0 1.37-5.41z m-438 71.68a42 42 0 1 1 42-42 42 42 0 0 1-42 42z m243-28a16 16 0 0 1-16 16H448a16 16 0 0 1-16-16v-28a16 16 0 0 1 16-16h128a16 16 0 0 1 16 16z m83 28a42 42 0 1 1 42-42 42 42 0 0 1-42 42zM625.66 301a61 61 0 0 1 60.89 60.9v36.86h-340v-36.93A60.9 60.9 0 0 1 407.39 301h218.27m0-44H407.39a104.84 104.84 0 0 0-104.84 104.83v80.93h428V361.9A104.89 104.89 0 0 0 625.66 257z" fill="#E6A23C" p-id="6197"></path><path d="M774.94 402.74h-1.16l-95.87 5a22 22 0 0 0 1.15 44h1.16l95.87-5a22 22 0 0 0-1.15-44zM249.06 402.74a22 22 0 0 0-1.15 44l95.87 5h1.16a22 22 0 0 0 1.15-44l-95.87-5h-1.16z" fill="#E6A23C" p-id="6198"></path><path d="M178.950292 212.894003m16.970563-16.970563l0 0q16.970563-16.970563 33.941125 0l598.212337 598.212337q16.970563 16.970563 0 33.941126l0 0q-16.970563 16.970563-33.941126 0l-598.212336-598.212337q-16.970563-16.970563 0-33.941126Z" fill="#E6A23C" p-id="6199"></path></svg>