<?xml version="1.0" standalone="no"?><!DOCTYPE svg PUBLIC "-//W3C//DTD SVG 1.1//EN" "http://www.w3.org/Graphics/SVG/1.1/DTD/svg11.dtd"><svg t="1709869150687" class="icon" viewBox="0 0 1024 1024" version="1.1" xmlns="http://www.w3.org/2000/svg" p-id="7900" xmlns:xlink="http://www.w3.org/1999/xlink" width="1024" height="1024"><path d="M894.464 895.488c-8.704 2.048-17.408-2.56-19.968-11.264l-90.624-332.8h33.28l88.064 325.12c3.072 8.192-2.048 16.896-10.752 18.944zM674.816 148.992c-2.048-8.704 2.56-17.408 11.264-19.456 8.704-2.048 17.408 2.56 19.456 11.264l86.016 316.416h-33.28c0.512-0.512-83.456-308.224-83.456-308.224zM502.784 400.384c-10.24 0-17.92-8.704-17.92-19.456V313.344c0-10.752 8.192-18.944 17.92-18.944 10.24 0 17.92 8.704 17.92 18.944v67.584c0.512 10.752-7.68 19.456-17.92 19.456z m0-181.76c-10.24 0-17.92-8.192-17.92-18.432v-51.2c0-10.24 8.192-18.432 17.92-18.432 10.24 0 17.92 8.192 17.92 18.432v51.2c0.512 10.24-7.68 18.432-17.92 18.432z m0 368.64c9.728 0 17.92 8.192 17.92 17.92v87.552c0 10.24-8.192 17.92-17.92 17.92s-17.92-8.192-17.92-17.92v-87.552c0-9.216 8.192-17.92 17.92-17.92zM246.272 457.216h-33.28l86.016-316.416c2.56-8.704 11.264-13.312 19.456-11.264 8.704 2.048 13.824 10.752 11.264 19.456L246.272 457.216z m-116.224 427.52c-2.56 8.704-11.264 13.312-19.456 11.264-8.192-2.048-13.312-10.752-11.264-19.456l88.064-324.608h33.28l-90.624 332.8z m372.736-122.88c9.728 0 17.92 8.704 17.92 18.432v101.376c0 10.24-7.68 18.432-17.92 18.432-9.728 0-17.92-8.192-17.92-18.432v-101.376c0.512-9.728 8.192-18.432 17.92-18.432z" p-id="7901" fill="#1296db"></path><path d="M502.784 918.016c-19.968 0-35.84-16.384-35.84-36.352v-101.376c0-19.968 15.872-36.352 35.84-36.352s35.84 16.384 35.84 36.352v101.376c0.512 19.968-15.36 36.352-35.84 36.352z m-388.608-4.096c-3.072 0-5.632-0.512-8.704-1.024-17.92-4.608-28.672-23.04-24.064-40.96v-0.512l91.648-337.92h70.656l-96.768 355.84c-4.096 14.848-17.92 24.576-32.768 24.576z m776.192 0c-14.848 0-28.672-9.728-32.768-24.576l-96.768-355.84h70.656l91.648 337.92c4.608 17.92-6.144 36.864-24.064 41.472l-4.608-17.408 4.608 17.408c-2.56 0.512-5.632 1.024-8.704 1.024z m-387.584-184.832c-9.728 0-18.432-3.584-25.088-10.24-6.656-6.656-10.752-15.872-10.752-25.6v-87.552c0-19.968 16.384-35.84 35.84-35.84 19.968 0 35.84 16.384 35.84 35.84v87.552c0.512 19.456-15.872 35.84-35.84 35.84z m0-123.904v87.552-105.472 17.92zM260.096 475.136H189.44l92.16-338.944c5.12-17.92 23.552-28.672 41.472-24.064 17.92 4.608 28.672 23.04 24.064 40.96v1.024l-87.04 321.024z m555.52-0.512h-70.656L657.408 153.6c-4.608-17.92 6.144-36.352 24.064-41.472 17.92-4.608 36.864 5.632 41.472 23.552l92.672 338.944z m-312.832-56.32c-19.968 0-35.84-16.896-35.84-37.376V313.344c0-20.48 16.384-36.864 35.84-36.864s35.84 16.896 35.84 36.864v67.584c0.512 20.48-15.872 37.376-35.84 37.376z m0-105.472V381.44 313.344c0.512 0 0-0.512 0-0.512z m0.512-76.288c-20.48 0-36.352-16.384-36.352-36.352v-51.2c0-19.968 16.384-35.84 35.84-36.352 19.968 0 36.352 16.384 36.352 36.352v51.2c0 19.456-15.872 36.352-35.84 36.352z m0-87.552l-0.512 51.712v17.92l0.512-69.632z" p-id="7902" fill="#1296db"></path></svg>