<?xml version="1.0" standalone="no"?><!DOCTYPE svg PUBLIC "-//W3C//DTD SVG 1.1//EN" "http://www.w3.org/Graphics/SVG/1.1/DTD/svg11.dtd"><svg t="1709799753686" class="icon" viewBox="0 0 1024 1024" version="1.1" xmlns="http://www.w3.org/2000/svg" p-id="2552" xmlns:xlink="http://www.w3.org/1999/xlink" width="1024" height="1024"><path d="M783.36 957.76H240.64V848.64l4.48-6.72c47.36-60.8 92.48-117.76 135.68-171.2 43.2-53.12 71.04-87.68 83.84-103.68 49.6-60.8 85.44-105.6 108.16-134.4s39.36-54.4 50.56-76.48c11.2-22.08 16.96-42.56 16.96-61.44 0-26.88-10.24-51.52-30.4-73.28s-47.68-32.64-82.24-32.64c-39.68 0-72.32 13.12-97.92 39.36-25.6 26.24-38.4 59.52-38.4 100.16V352H254.4v-23.68c0-49.6 11.2-94.08 33.28-134.08 22.08-39.68 53.12-71.04 92.8-94.08 39.68-22.72 85.12-34.24 136.32-34.24h1.28c70.4 0 128.32 16.96 173.76 51.2s73.28 78.08 83.84 132.16c2.88 14.4 4.48 29.76 4.48 46.08 0 27.84-5.76 55.04-16.96 82.24-11.2 26.88-25.92 53.76-43.84 80-17.92 26.24-44.8 61.44-80 105.92-41.28 51.84-74.56 95.36-100.16 130.56-13.44 18.88-28.8 39.36-46.08 61.44-17.28 22.08-29.12 37.44-36.16 45.44l-25.92 32.64h352.32v124.16z" p-id="2553" fill="#1296db"></path></svg>