<?xml version="1.0" standalone="no"?><!DOCTYPE svg PUBLIC "-//W3C//DTD SVG 1.1//EN" "http://www.w3.org/Graphics/SVG/1.1/DTD/svg11.dtd"><svg t="1709799765046" class="icon" viewBox="0 0 1024 1024" version="1.1" xmlns="http://www.w3.org/2000/svg" p-id="2808" xmlns:xlink="http://www.w3.org/1999/xlink" width="1024" height="1024"><path d="M761.28 814.08c-25.92 43.84-60.8 78.72-104.64 104.64s-91.84 38.72-143.36 38.72c-52.48 0-100.8-13.12-145.28-39.36-44.16-26.24-79.36-61.44-105.28-105.92C236.8 768.32 224 720.64 224 669.44l140.8 1.28c0 12.8 0.64 22.4 1.6 28.8 0.96 6.4 1.92 11.2 2.88 14.08 8.96 31.36 26.88 57.28 53.44 77.12s56.96 29.76 90.56 29.76c26.88 0 51.84-6.72 74.88-20.16s40.96-32 54.08-55.04c13.12-23.36 19.84-48.64 19.84-76.48 0-25.6-5.76-49.6-16.96-72s-27.84-41.92-49.6-58.56c-19.52-13.44-42.56-22.08-69.12-25.28-26.56-3.52-66.88-5.12-120.96-5.12V384l185.6-192.32H255.36V66.88h513.28v122.56l-191.36 201.6c41.28 8.32 79.04 25.92 112.96 53.44 34.24 27.52 60.8 60.8 80.32 100.8C790.4 584.32 800 626.56 800 670.72c0 51.84-12.8 99.52-38.72 143.36z" p-id="2809" fill="#bfbfbf"></path></svg>